<svg id="Layer_1" data-name="Layer 1" xmlns="http://www.w3.org/2000/svg" xmlns:xlink="http://www.w3.org/1999/xlink" viewBox="0 0 1024 1024"><defs><style>.cls-1{fill:url(#linear-gradient);}.cls-2{fill:#dfeaf0;opacity:0.5;}.cls-3{fill:url(#linear-gradient-2);}</style><linearGradient id="linear-gradient" x1="512" y1="1031.57" x2="512" y2="-11.9" gradientUnits="userSpaceOnUse"><stop offset="0" stop-color="#dfeaf0"/><stop offset="0.29" stop-color="#eff4f7"/><stop offset="0.65" stop-color="#fbfcfd"/><stop offset="1" stop-color="#fff"/></linearGradient><linearGradient id="linear-gradient-2" x1="512" y1="796.94" x2="512" y2="150.7" gradientUnits="userSpaceOnUse"><stop offset="0" stop-color="#1bd71b"/><stop offset="1" stop-color="#1cd679"/></linearGradient></defs><rect class="cls-1" width="1024" height="1024"/><path class="cls-2" d="M1024,514.6v305c0,112.89-91.52,204.4-204.4,204.4H407.38L171.92,788.54,254.6,602.27,392.21,492.08,541.87,380.62l117.2-84L834.44,325Z"/><path class="cls-3" d="M829.19,535.24c-23.33-40.3-63.37-70.38-108.34-82.49-20.14-5.42-41.3-7.44-60.56-15.44S623.14,413.25,621,392.49c-2-19.24,10.93-38.21,28.52-46.22s38.66-6.12,56.15,2.09,31.77,22.17,43.36,37.64a834.51,834.51,0,0,1,85.51-60.86c-27.06-47.3-76.89-80.86-130.88-88.16-41.37-5.59-84.45,4.34-121.61,28.31V243.63H468.44v113A69.08,69.08,0,0,1,446,407.93l-.27.24c-18.13,16.32-40.5,27.22-63.32,35.86s-46.38,15.21-69.1,24.13c-9.52,3.74-19.23,8.24-27.73,14V243.63H171.92V788.07H285.54V651.24a78.93,78.93,0,0,1,25.86-58.67l.48-.43a192.46,192.46,0,0,1,52.87-33.43c27.52-11.66,57.47-16.79,84.81-28.86a138.62,138.62,0,0,0,18.88-10.13V787a138.42,138.42,0,0,0,67.5-67.63c6-13.27,9.91-27.37,13.65-41.53,4-15.21,7.94-30.47,14.28-44.83a152.24,152.24,0,0,1,18.2-30.55c15.51-20.39,35.81-37.38,57.72-50.94,32-19.84,67.66-33,103-46.11q.21,44.79.41,89.57c.06,14.48.12,29-2,43.33A145.4,145.4,0,0,1,582.07,761.9l-1-.1,1-.61c33.8-20.19,64.87-45.81,87.37-78.11,22.73-32.62,36.29-72.43,33.48-112.09-6.52,44.57-29.34,85.75-59.91,118.82-18.08,19.56-38.78,36.42-60.94,51.22Q571.95,747.8,561.45,754q-13.32,7.9-27.08,15c-14.13,7.3-28.7,14.09-43.77,19.12h91.47c26.32,1.26,52.68-.29,79-1.31,31.55-1.23,63.63-4.25,92.79-16.38,43-17.9,76.93-55.84,90.84-100.29S852.53,575.54,829.19,535.24Z"/></svg>